<svg width="1600" height="980" viewBox="0 0 1600 980" fill="none" xmlns="http://www.w3.org/2000/svg">
  <rect width="1600" height="980" rx="36" fill="#F4F7FC"/>
  <rect x="36" y="36" width="1528" height="908" rx="28" fill="white" stroke="#D7E0EE"/>
  <rect x="72" y="72" width="1456" height="78" rx="20" fill="#F7FAFF" stroke="#D7E0EE"/>
  <rect x="100" y="96" width="170" height="30" rx="10" fill="#0B2A4F"/>
  <rect x="1218" y="95" width="120" height="34" rx="12" fill="#EEF3FB"/>
  <rect x="1356" y="95" width="136" height="34" rx="12" fill="#0B2A4F"/>
  <rect x="72" y="178" width="278" height="730" rx="24" fill="#0D2340"/>
  <rect x="102" y="218" width="150" height="18" rx="9" fill="#FFFFFF" fill-opacity="0.92"/>
  <rect x="102" y="248" width="110" height="10" rx="5" fill="#8EA3CC" fill-opacity="0.8"/>
  <rect x="102" y="302" width="218" height="72" rx="18" fill="#18385F"/>
  <rect x="124" y="324" width="44" height="44" rx="14" fill="#FFFFFF" fill-opacity="0.12"/>
  <rect x="180" y="328" width="104" height="12" rx="6" fill="#FFFFFF" fill-opacity="0.86"/>
  <rect x="180" y="348" width="86" height="10" rx="5" fill="#9FB0CE" fill-opacity="0.82"/>
  <rect x="102" y="412" width="218" height="52" rx="16" fill="#FFFFFF" fill-opacity="0.08"/>
  <rect x="120" y="432" width="120" height="10" rx="5" fill="#FFFFFF" fill-opacity="0.8"/>
  <rect x="102" y="478" width="218" height="52" rx="16" fill="#FFFFFF" fill-opacity="0.08"/>
  <rect x="120" y="498" width="132" height="10" rx="5" fill="#FFFFFF" fill-opacity="0.8"/>
  <rect x="102" y="544" width="218" height="52" rx="16" fill="#FFFFFF" fill-opacity="0.08"/>
  <rect x="120" y="564" width="118" height="10" rx="5" fill="#FFFFFF" fill-opacity="0.8"/>
  <rect x="102" y="610" width="218" height="52" rx="16" fill="#FFFFFF" fill-opacity="0.08"/>
  <rect x="120" y="630" width="128" height="10" rx="5" fill="#FFFFFF" fill-opacity="0.8"/>
  <rect x="392" y="178" width="1136" height="150" rx="24" fill="#F7FAFF" stroke="#D7E0EE"/>
  <rect x="426" y="212" width="194" height="16" rx="8" fill="#0B2A4F"/>
  <rect x="426" y="242" width="406" height="12" rx="6" fill="#6E82AB"/>
  <rect x="426" y="276" width="186" height="20" rx="10" fill="#E7EDF7"/>
  <rect x="958" y="208" width="258" height="84" rx="20" fill="#0B2A4F"/>
  <rect x="986" y="234" width="92" height="12" rx="6" fill="white"/>
  <rect x="986" y="258" width="64" height="10" rx="5" fill="#AFC0DD"/>
  <rect x="1128" y="228" width="58" height="58" rx="18" fill="white" fill-opacity="0.12"/>
  <rect x="1244" y="208" width="244" height="84" rx="20" fill="white" stroke="#D7E0EE"/>
  <rect x="1272" y="234" width="90" height="12" rx="6" fill="#0B2A4F"/>
  <rect x="1272" y="258" width="138" height="10" rx="5" fill="#90A4C9"/>
  <rect x="392" y="352" width="556" height="268" rx="24" fill="white" stroke="#D7E0EE"/>
  <rect x="426" y="388" width="188" height="16" rx="8" fill="#0B2A4F"/>
  <rect x="426" y="418" width="126" height="12" rx="6" fill="#7C90B6"/>
  <path d="M438 540C488 490 534 510 588 470C640 432 706 446 752 404C796 366 856 366 904 394" stroke="#0B2A4F" stroke-width="8" stroke-linecap="round"/>
  <circle cx="588" cy="470" r="11" fill="#60749F"/>
  <circle cx="752" cy="404" r="11" fill="#0B2A4F"/>
  <circle cx="904" cy="394" r="11" fill="#60749F"/>
  <rect x="426" y="562" width="120" height="12" rx="6" fill="#D3DDEB"/>
  <rect x="562" y="562" width="96" height="12" rx="6" fill="#E0E7F2"/>
  <rect x="974" y="352" width="554" height="268" rx="24" fill="white" stroke="#D7E0EE"/>
  <rect x="1008" y="388" width="172" height="16" rx="8" fill="#0B2A4F"/>
  <rect x="1008" y="418" width="136" height="12" rx="6" fill="#7C90B6"/>
  <rect x="1008" y="468" width="486" height="24" rx="12" fill="#EEF3FB"/>
  <rect x="1008" y="468" width="362" height="24" rx="12" fill="#60749F"/>
  <rect x="1008" y="514" width="486" height="24" rx="12" fill="#EEF3FB"/>
  <rect x="1008" y="514" width="278" height="24" rx="12" fill="#0B2A4F"/>
  <rect x="1008" y="560" width="486" height="24" rx="12" fill="#EEF3FB"/>
  <rect x="1008" y="560" width="194" height="24" rx="12" fill="#8DA0C7"/>
  <rect x="392" y="644" width="364" height="264" rx="24" fill="#0B2A4F"/>
  <rect x="426" y="678" width="152" height="14" rx="7" fill="white"/>
  <rect x="426" y="706" width="98" height="10" rx="5" fill="#AFC0DD"/>
  <rect x="426" y="754" width="296" height="46" rx="16" fill="white" fill-opacity="0.1"/>
  <rect x="446" y="772" width="116" height="10" rx="5" fill="white" fill-opacity="0.9"/>
  <rect x="426" y="816" width="296" height="46" rx="16" fill="white" fill-opacity="0.1"/>
  <rect x="446" y="834" width="134" height="10" rx="5" fill="white" fill-opacity="0.9"/>
  <rect x="780" y="644" width="748" height="264" rx="24" fill="white" stroke="#D7E0EE"/>
  <rect x="814" y="678" width="182" height="16" rx="8" fill="#0B2A4F"/>
  <rect x="814" y="708" width="142" height="12" rx="6" fill="#7C90B6"/>
  <rect x="814" y="764" width="210" height="110" rx="20" fill="#F5F8FD" stroke="#D7E0EE"/>
  <rect x="842" y="790" width="86" height="12" rx="6" fill="#0B2A4F"/>
  <rect x="842" y="814" width="128" height="10" rx="5" fill="#90A4C9"/>
  <rect x="1052" y="764" width="210" height="110" rx="20" fill="#F5F8FD" stroke="#D7E0EE"/>
  <rect x="1080" y="790" width="84" height="12" rx="6" fill="#0B2A4F"/>
  <rect x="1080" y="814" width="112" height="10" rx="5" fill="#90A4C9"/>
  <rect x="1290" y="764" width="210" height="110" rx="20" fill="#F5F8FD" stroke="#D7E0EE"/>
  <rect x="1318" y="790" width="78" height="12" rx="6" fill="#0B2A4F"/>
  <rect x="1318" y="814" width="120" height="10" rx="5" fill="#90A4C9"/>
</svg>
